<svg width="61" height="61" viewBox="0 0 61 61" fill="none" xmlns="http://www.w3.org/2000/svg">
<circle cx="30.0518" cy="30.5" r="28" stroke="url(#paint0_linear)" stroke-width="4"/>
<ellipse cx="30.0522" cy="30.4999" rx="27.0724" ry="27.0724" fill="#366FC5"/>
<ellipse cx="30.0522" cy="30.4999" rx="27.0724" ry="27.0724" fill="url(#paint1_linear)"/>
<mask id="mask0" mask-type="alpha" maskUnits="userSpaceOnUse" x="2" y="3" width="56" height="55">
<path d="M54.624 30.4999C54.624 44.0707 43.6228 55.0719 30.052 55.0719C16.4812 55.0719 5.47995 44.0707 5.47995 30.4999C5.47995 16.9291 16.4812 5.92786 30.052 5.92786C43.6228 5.92786 54.624 16.9291 54.624 30.4999Z" stroke="white" stroke-width="5"/>
</mask>
<g mask="url(#mask0)">
<circle cx="30.1892" cy="30.8439" r="28.6489" fill="url(#paint2_linear)"/>
</g>
<g filter="url(#filter0_f)">
<path d="M19.7323 28.2547H21.5803V34.6147H19.7323V28.2547ZM20.6563 27.6547C20.3123 27.6547 20.0443 27.5667 19.8523 27.3907C19.6683 27.2067 19.5763 26.9747 19.5763 26.6947C19.5763 26.4147 19.6683 26.1867 19.8523 26.0107C20.0443 25.8267 20.3123 25.7347 20.6563 25.7347C21.0003 25.7347 21.2643 25.8267 21.4483 26.0107C21.6403 26.1867 21.7363 26.4147 21.7363 26.6947C21.7363 26.9747 21.6403 27.2067 21.4483 27.3907C21.2643 27.5667 21.0003 27.6547 20.6563 27.6547ZM22.9052 28.2547H24.6092V29.1187C24.7692 28.8387 25.0172 28.5987 25.3532 28.3987C25.6972 28.1987 26.1532 28.0987 26.7212 28.0987C27.4812 28.0987 28.0532 28.3067 28.4372 28.7227C28.8292 29.1307 29.0252 29.7147 29.0252 30.4747V34.6147H27.1772V30.8947C27.1772 30.4787 27.0852 30.1667 26.9012 29.9587C26.7252 29.7427 26.4332 29.6347 26.0252 29.6347C25.8012 29.6347 25.6092 29.6707 25.4492 29.7427C25.2892 29.8067 25.1572 29.8947 25.0532 30.0067C24.9492 30.1187 24.8732 30.2547 24.8252 30.4147C24.7772 30.5667 24.7532 30.7267 24.7532 30.8947V34.6147H22.9052V28.2547ZM30.5309 29.7667H29.8109V28.2547H30.5309V27.9547C30.5309 27.6667 30.5709 27.4107 30.6509 27.1867C30.7309 26.9627 30.8669 26.7747 31.0589 26.6227C31.2509 26.4627 31.5029 26.3427 31.8149 26.2627C32.1349 26.1827 32.5269 26.1427 32.9909 26.1427C33.1109 26.1427 33.2589 26.1467 33.4349 26.1547C33.6189 26.1547 33.7709 26.1627 33.8909 26.1787V27.7147C33.7709 27.6987 33.6389 27.6907 33.4949 27.6907C33.3589 27.6827 33.2309 27.6787 33.1109 27.6787C32.8309 27.6787 32.6389 27.7227 32.5349 27.8107C32.4309 27.8907 32.3789 27.9987 32.3789 28.1347V28.2547H33.7709V29.7667H32.3789V34.6147H30.5309V29.7667ZM37.4951 34.7707C37.0471 34.7707 36.6271 34.7067 36.2351 34.5787C35.8431 34.4427 35.4991 34.2387 35.2031 33.9667C34.9071 33.6947 34.6751 33.3547 34.5071 32.9467C34.3391 32.5307 34.2551 32.0467 34.2551 31.4947V31.2547C34.2551 30.7347 34.3391 30.2787 34.5071 29.8867C34.6751 29.4947 34.9071 29.1667 35.2031 28.9027C35.4991 28.6387 35.8431 28.4387 36.2351 28.3027C36.6271 28.1667 37.0471 28.0987 37.4951 28.0987C37.9431 28.0987 38.3631 28.1667 38.7551 28.3027C39.1471 28.4387 39.4911 28.6387 39.7871 28.9027C40.0831 29.1667 40.3151 29.4947 40.4831 29.8867C40.6511 30.2787 40.7351 30.7347 40.7351 31.2547V31.4947C40.7351 32.0387 40.6511 32.5187 40.4831 32.9347C40.3151 33.3427 40.0831 33.6827 39.7871 33.9547C39.4911 34.2267 39.1471 34.4307 38.7551 34.5667C38.3631 34.7027 37.9431 34.7707 37.4951 34.7707ZM37.4951 33.2347C37.9271 33.2347 38.2591 33.0787 38.4911 32.7667C38.7231 32.4547 38.8391 32.0307 38.8391 31.4947V31.2547C38.8391 30.7747 38.7231 30.3867 38.4911 30.0907C38.2591 29.7867 37.9271 29.6347 37.4951 29.6347C37.0631 29.6347 36.7311 29.7867 36.4991 30.0907C36.2671 30.3867 36.1511 30.7747 36.1511 31.2547V31.4947C36.1511 32.0467 36.2671 32.4747 36.4991 32.7787C36.7311 33.0827 37.0631 33.2347 37.4951 33.2347Z" fill="#4987D0"/>
</g>
<path d="M19.7328 28.2547H21.5808V34.6147H19.7328V28.2547ZM20.6568 27.6547C20.3128 27.6547 20.0448 27.5667 19.8528 27.3907C19.6688 27.2067 19.5768 26.9747 19.5768 26.6947C19.5768 26.4147 19.6688 26.1867 19.8528 26.0107C20.0448 25.8267 20.3128 25.7347 20.6568 25.7347C21.0008 25.7347 21.2648 25.8267 21.4488 26.0107C21.6408 26.1867 21.7368 26.4147 21.7368 26.6947C21.7368 26.9747 21.6408 27.2067 21.4488 27.3907C21.2648 27.5667 21.0008 27.6547 20.6568 27.6547ZM22.9057 28.2547H24.6097V29.1187C24.7697 28.8387 25.0177 28.5987 25.3537 28.3987C25.6977 28.1987 26.1537 28.0987 26.7217 28.0987C27.4817 28.0987 28.0537 28.3067 28.4377 28.7227C28.8297 29.1307 29.0257 29.7147 29.0257 30.4747V34.6147H27.1777V30.8947C27.1777 30.4787 27.0857 30.1667 26.9017 29.9587C26.7257 29.7427 26.4337 29.6347 26.0257 29.6347C25.8017 29.6347 25.6097 29.6707 25.4497 29.7427C25.2897 29.8067 25.1577 29.8947 25.0537 30.0067C24.9497 30.1187 24.8737 30.2547 24.8257 30.4147C24.7777 30.5667 24.7537 30.7267 24.7537 30.8947V34.6147H22.9057V28.2547ZM30.5314 29.7667H29.8114V28.2547H30.5314V27.9547C30.5314 27.6667 30.5714 27.4107 30.6514 27.1867C30.7314 26.9627 30.8674 26.7747 31.0594 26.6227C31.2514 26.4627 31.5034 26.3427 31.8154 26.2627C32.1354 26.1827 32.5274 26.1427 32.9914 26.1427C33.1114 26.1427 33.2594 26.1467 33.4354 26.1547C33.6194 26.1547 33.7714 26.1627 33.8914 26.1787V27.7147C33.7714 27.6987 33.6394 27.6907 33.4954 27.6907C33.3594 27.6827 33.2314 27.6787 33.1114 27.6787C32.8314 27.6787 32.6394 27.7227 32.5354 27.8107C32.4314 27.8907 32.3794 27.9987 32.3794 28.1347V28.2547H33.7714V29.7667H32.3794V34.6147H30.5314V29.7667ZM37.4956 34.7707C37.0476 34.7707 36.6276 34.7067 36.2356 34.5787C35.8436 34.4427 35.4996 34.2387 35.2036 33.9667C34.9076 33.6947 34.6756 33.3547 34.5076 32.9467C34.3396 32.5307 34.2556 32.0467 34.2556 31.4947V31.2547C34.2556 30.7347 34.3396 30.2787 34.5076 29.8867C34.6756 29.4947 34.9076 29.1667 35.2036 28.9027C35.4996 28.6387 35.8436 28.4387 36.2356 28.3027C36.6276 28.1667 37.0476 28.0987 37.4956 28.0987C37.9436 28.0987 38.3636 28.1667 38.7556 28.3027C39.1476 28.4387 39.4916 28.6387 39.7876 28.9027C40.0836 29.1667 40.3156 29.4947 40.4836 29.8867C40.6516 30.2787 40.7356 30.7347 40.7356 31.2547V31.4947C40.7356 32.0387 40.6516 32.5187 40.4836 32.9347C40.3156 33.3427 40.0836 33.6827 39.7876 33.9547C39.4916 34.2267 39.1476 34.4307 38.7556 34.5667C38.3636 34.7027 37.9436 34.7707 37.4956 34.7707ZM37.4956 33.2347C37.9276 33.2347 38.2596 33.0787 38.4916 32.7667C38.7236 32.4547 38.8396 32.0307 38.8396 31.4947V31.2547C38.8396 30.7747 38.7236 30.3867 38.4916 30.0907C38.2596 29.7867 37.9276 29.6347 37.4956 29.6347C37.0636 29.6347 36.7316 29.7867 36.4996 30.0907C36.2676 30.3867 36.1516 30.7747 36.1516 31.2547V31.4947C36.1516 32.0467 36.2676 32.4747 36.4996 32.7787C36.7316 33.0827 37.0636 33.2347 37.4956 33.2347Z" fill="#54C1FF"/>
<g filter="url(#filter1_f)">
<path d="M57.1657 30.4998C57.1657 45.4743 45.0265 57.6135 30.052 57.6135C15.0775 57.6135 2.93832 45.4743 2.93832 30.4998C2.93832 15.5253 15.0775 3.38611 30.052 3.38611C45.0265 3.38611 57.1657 15.5253 57.1657 30.4998Z" stroke="#00C2FF" stroke-width="1.5"/>
</g>
<defs>
<filter id="filter0_f" x="16.5763" y="22.7347" width="27.1588" height="15.036" filterUnits="userSpaceOnUse" color-interpolation-filters="sRGB">
<feFlood flood-opacity="0" result="BackgroundImageFix"/>
<feBlend mode="normal" in="SourceGraphic" in2="BackgroundImageFix" result="shape"/>
<feGaussianBlur stdDeviation="1.5" result="effect1_foregroundBlur"/>
</filter>
<filter id="filter1_f" x="1.18832" y="1.63611" width="57.7274" height="57.7274" filterUnits="userSpaceOnUse" color-interpolation-filters="sRGB">
<feFlood flood-opacity="0" result="BackgroundImageFix"/>
<feBlend mode="normal" in="SourceGraphic" in2="BackgroundImageFix" result="shape"/>
<feGaussianBlur stdDeviation="0.5" result="effect1_foregroundBlur"/>
</filter>
<linearGradient id="paint0_linear" x1="30.0518" y1="0.5" x2="30.0518" y2="60.5" gradientUnits="userSpaceOnUse">
<stop stop-color="#181B26"/>
<stop offset="1" stop-color="#3B3F4F"/>
</linearGradient>
<linearGradient id="paint1_linear" x1="14.0825" y1="7.27533" x2="47.6261" y2="53.761" gradientUnits="userSpaceOnUse">
<stop stop-color="#2A2F32"/>
<stop offset="1" stop-color="#4A616D"/>
</linearGradient>
<linearGradient id="paint2_linear" x1="12.4069" y1="9.11019" x2="47.9713" y2="54.5535" gradientUnits="userSpaceOnUse">
<stop stop-color="#3D4A58"/>
<stop offset="1" stop-color="#141E2B"/>
</linearGradient>
</defs>
</svg>
