<svg width="106" height="60" viewBox="0 0 106 60" fill="none" xmlns="http://www.w3.org/2000/svg">
<rect x="0.0517578" y="0.0626221" width="105.226" height="59.4374" rx="3" fill="url(#paint0_linear)"/>
<mask id="mask0" mask-type="alpha" maskUnits="userSpaceOnUse" x="0" y="0" width="106" height="37">
<rect x="0.0517578" y="0.0625" width="105.226" height="36.0825" rx="3" fill="url(#paint1_linear)"/>
</mask>
<g mask="url(#mask0)">
<path d="M1.84979 -22.6683H104.137L102.321 0.657841L90.7552 11.8618H15.1526L1.84961 1.37296L1.84979 -22.6683Z" fill="url(#paint2_linear)" fill-opacity="0.28"/>
</g>
<mask id="mask1" mask-type="alpha" maskUnits="userSpaceOnUse" x="0" y="25" width="106" height="35">
<rect width="105.226" height="33.755" rx="3" transform="matrix(1 0 0 -1 0.0517578 59.5)" fill="url(#paint3_linear)"/>
</mask>
<g mask="url(#mask1)">
<path d="M1.84979 80.7645H104.137V58.274L90.5961 48.0394H15.2322L1.84961 58.274L1.84979 80.7645Z" fill="url(#paint4_linear)" fill-opacity="0.28"/>
</g>
<mask id="mask2" mask-type="alpha" maskUnits="userSpaceOnUse" x="1" y="1" width="42" height="59">
<rect x="1.44775" y="59.3076" width="57.7298" height="40.6025" rx="3" transform="rotate(-90 1.44775 59.3076)" fill="url(#paint5_linear)"/>
</mask>
<g mask="url(#mask2)">
<path d="M-24.1303 58.3211L-24.1303 2.20354L1.8398 1.68907L15.2333 11.8992L15.2333 47.8702L2.92257 58.3212L-24.1303 58.3211Z" fill="url(#paint6_linear)" fill-opacity="0.18"/>
</g>
<mask id="mask3" mask-type="alpha" maskUnits="userSpaceOnUse" x="67" y="0" width="36" height="59">
<rect width="57.7298" height="35.6227" rx="3" transform="matrix(4.37114e-08 -1 -1 -4.37114e-08 102.735 58.646)" fill="url(#paint7_linear)"/>
</mask>
<g mask="url(#mask3)">
<path d="M125.176 57.6594L125.176 1.54192L102.391 1.02745L90.6406 11.7401L90.6406 47.8702L101.442 57.6595L125.176 57.6594Z" fill="url(#paint8_linear)" fill-opacity="0.18"/>
</g>
<rect x="1.05176" y="1.06262" width="103.226" height="57.4374" rx="2" stroke="#0A1820" stroke-width="2"/>
<path d="M31.6277 25.0349H36.8527V26.1789H32.9477V27.9389H34.5427C35.056 27.9389 35.5034 27.9975 35.8847 28.1149C36.266 28.2249 36.5814 28.3862 36.8307 28.5989C37.08 28.8042 37.2634 29.0572 37.3807 29.3579C37.5054 29.6512 37.5677 29.9775 37.5677 30.3369C37.5677 30.6962 37.5054 31.0262 37.3807 31.3269C37.2634 31.6202 37.08 31.8732 36.8307 32.0859C36.5814 32.2912 36.266 32.4525 35.8847 32.5699C35.5034 32.6799 35.056 32.7349 34.5427 32.7349H31.6277V25.0349ZM34.4327 31.5909C34.7774 31.5909 35.067 31.5652 35.3017 31.5139C35.5364 31.4552 35.7234 31.3745 35.8627 31.2719C36.002 31.1692 36.101 31.0409 36.1597 30.8869C36.2184 30.7255 36.2477 30.5385 36.2477 30.3259C36.2477 30.1205 36.2184 29.9409 36.1597 29.7869C36.101 29.6329 36.002 29.5045 35.8627 29.4019C35.7234 29.2992 35.5364 29.2222 35.3017 29.1709C35.067 29.1122 34.7774 29.0829 34.4327 29.0829H32.9477V31.5909H34.4327ZM43.1037 30.9969H39.9797L39.3307 32.7349H38.0107L40.9257 25.0349H42.2457L45.1607 32.7349H43.7527L43.1037 30.9969ZM40.4087 29.8529H42.6747L41.5527 26.6849L40.4087 29.8529ZM46.3123 25.0349H49.1173C50.1513 25.0349 50.9139 25.2585 51.4053 25.7059C51.8966 26.1459 52.1423 26.7399 52.1423 27.4879C52.1423 28.2359 51.8966 28.8335 51.4053 29.2809C50.9139 29.7209 50.1513 29.9409 49.1173 29.9409H47.6323V32.7349H46.3123V25.0349ZM49.0073 28.7969C49.3519 28.7969 49.6416 28.7712 49.8763 28.7199C50.1109 28.6612 50.2979 28.5805 50.4373 28.4779C50.5766 28.3679 50.6756 28.2322 50.7343 28.0709C50.7929 27.9022 50.8223 27.7079 50.8223 27.4879C50.8223 27.2679 50.7929 27.0772 50.7343 26.9159C50.6756 26.7545 50.5766 26.6189 50.4373 26.5089C50.2979 26.3989 50.1109 26.3182 49.8763 26.2669C49.6416 26.2082 49.3519 26.1789 49.0073 26.1789H47.6323V28.7969H49.0073ZM53.574 25.0349H54.894V27.9389H56.379C56.8923 27.9389 57.3397 27.9975 57.721 28.1149C58.1023 28.2249 58.4177 28.3862 58.667 28.5989C58.9163 28.8042 59.0997 29.0572 59.217 29.3579C59.3417 29.6512 59.404 29.9775 59.404 30.3369C59.404 30.6962 59.3417 31.0262 59.217 31.3269C59.0997 31.6202 58.9163 31.8732 58.667 32.0859C58.4177 32.2912 58.1023 32.4525 57.721 32.5699C57.3397 32.6799 56.8923 32.7349 56.379 32.7349H53.574V25.0349ZM56.269 31.5909C56.6137 31.5909 56.9033 31.5652 57.138 31.5139C57.3727 31.4552 57.5597 31.3745 57.699 31.2719C57.8383 31.1692 57.9373 31.0409 57.996 30.8869C58.0547 30.7255 58.084 30.5422 58.084 30.3369C58.084 30.1315 58.0547 29.9519 57.996 29.7979C57.9373 29.6365 57.8383 29.5045 57.699 29.4019C57.5597 29.2992 57.3727 29.2222 57.138 29.1709C56.9033 29.1122 56.6137 29.0829 56.269 29.0829H54.894V31.5909H56.269ZM60.8357 25.0349H66.0057V26.1789H62.1557V28.2029H65.6757V29.3469H62.1557V31.5909H66.0057V32.7349H60.8357V25.0349ZM67.6033 25.0349H70.4083C71.4423 25.0349 72.2049 25.2585 72.6963 25.7059C73.1876 26.1459 73.4333 26.7399 73.4333 27.4879C73.4333 28.2359 73.1876 28.8335 72.6963 29.2809C72.2049 29.7209 71.4423 29.9409 70.4083 29.9409H68.9233V32.7349H67.6033V25.0349ZM70.2983 28.7969C70.6429 28.7969 70.9326 28.7712 71.1673 28.7199C71.4019 28.6612 71.5889 28.5805 71.7283 28.4779C71.8676 28.3679 71.9666 28.2322 72.0253 28.0709C72.0839 27.9022 72.1133 27.7079 72.1133 27.4879C72.1133 27.2679 72.0839 27.0772 72.0253 26.9159C71.9666 26.7545 71.8676 26.6189 71.7283 26.5089C71.5889 26.3989 71.4019 26.3182 71.1673 26.2669C70.9326 26.2082 70.6429 26.1789 70.2983 26.1789H68.9233V28.7969H70.2983Z" fill="#172F3D"/>
<defs>
<linearGradient id="paint0_linear" x1="52.6647" y1="0.0626221" x2="52.6647" y2="59.5" gradientUnits="userSpaceOnUse">
<stop stop-color="#1993BA"/>
<stop offset="1" stop-color="#003B4F"/>
</linearGradient>
<linearGradient id="paint1_linear" x1="52.6647" y1="0.0625" x2="52.6647" y2="36.145" gradientUnits="userSpaceOnUse">
<stop stop-color="#1993BA"/>
<stop offset="1" stop-color="#003B4F"/>
</linearGradient>
<linearGradient id="paint2_linear" x1="52.6647" y1="-22.6683" x2="52.6647" y2="22.9699" gradientUnits="userSpaceOnUse">
<stop offset="0.226076" stop-color="#153843" stop-opacity="0"/>
<stop offset="0.747912" stop-color="white"/>
<stop offset="1" stop-color="#016687" stop-opacity="0"/>
</linearGradient>
<linearGradient id="paint3_linear" x1="52.613" y1="0" x2="52.613" y2="33.755" gradientUnits="userSpaceOnUse">
<stop stop-color="#1993BA"/>
<stop offset="1" stop-color="#003B4F"/>
</linearGradient>
<linearGradient id="paint4_linear" x1="52.6647" y1="80.7645" x2="52.6647" y2="38.0702" gradientUnits="userSpaceOnUse">
<stop offset="0.226076" stop-color="#153843" stop-opacity="0"/>
<stop offset="0.747912" stop-color="#1E2729"/>
<stop offset="1" stop-color="#016687" stop-opacity="0"/>
</linearGradient>
<linearGradient id="paint5_linear" x1="30.3127" y1="59.3076" x2="30.3127" y2="99.9101" gradientUnits="userSpaceOnUse">
<stop stop-color="#1993BA"/>
<stop offset="1" stop-color="#003B4F"/>
</linearGradient>
<linearGradient id="paint6_linear" x1="-24.1303" y1="30.4426" x2="27.2249" y2="30.4426" gradientUnits="userSpaceOnUse">
<stop offset="0.226076" stop-color="#153843" stop-opacity="0"/>
<stop offset="0.747912" stop-color="white"/>
<stop offset="1" stop-color="#016687" stop-opacity="0"/>
</linearGradient>
<linearGradient id="paint7_linear" x1="28.8649" y1="0" x2="28.8649" y2="35.6227" gradientUnits="userSpaceOnUse">
<stop stop-color="#1993BA"/>
<stop offset="1" stop-color="#003B4F"/>
</linearGradient>
<linearGradient id="paint8_linear" x1="125.176" y1="29.781" x2="80.1198" y2="29.781" gradientUnits="userSpaceOnUse">
<stop offset="0.226076" stop-color="#153843" stop-opacity="0"/>
<stop offset="0.747912" stop-color="white"/>
<stop offset="1" stop-color="#016687" stop-opacity="0"/>
</linearGradient>
</defs>
</svg>
