<svg width="61" height="61" viewBox="0 0 61 61" fill="none" xmlns="http://www.w3.org/2000/svg">
<circle cx="30.0518" cy="30.9852" r="28" stroke="url(#paint0_linear)" stroke-width="4"/>
<ellipse cx="30.0522" cy="30.9851" rx="27.0724" ry="27.0724" fill="#366FC5"/>
<ellipse cx="30.0522" cy="30.9851" rx="27.0724" ry="27.0724" fill="url(#paint1_linear)"/>
<mask id="mask0" mask-type="alpha" maskUnits="userSpaceOnUse" x="2" y="3" width="56" height="56">
<path d="M54.624 30.9851C54.624 44.5559 43.6228 55.5572 30.052 55.5572C16.4812 55.5572 5.47995 44.5559 5.47995 30.9851C5.47995 17.4144 16.4812 6.41309 30.052 6.41309C43.6228 6.41309 54.624 17.4144 54.624 30.9851Z" stroke="white" stroke-width="5"/>
</mask>
<g mask="url(#mask0)">
<circle cx="30.1892" cy="31.3292" r="28.6489" fill="url(#paint2_linear)"/>
</g>
<g filter="url(#filter0_f)">
<path d="M23.0988 35.256C22.5788 35.256 22.1308 35.204 21.7548 35.1C21.3868 34.988 21.0828 34.84 20.8428 34.656C20.6028 34.464 20.4228 34.244 20.3028 33.996C20.1828 33.74 20.1148 33.468 20.0988 33.18H21.9468C21.9948 33.364 22.0988 33.52 22.2588 33.648C22.4188 33.776 22.6988 33.84 23.0988 33.84C23.5068 33.84 23.7988 33.784 23.9748 33.672C24.1588 33.56 24.2508 33.412 24.2508 33.228C24.2508 33.156 24.2308 33.092 24.1908 33.036C24.1508 32.972 24.0748 32.916 23.9628 32.868C23.8588 32.812 23.7148 32.76 23.5308 32.712C23.3468 32.664 23.1108 32.616 22.8228 32.568C22.4708 32.512 22.1388 32.44 21.8268 32.352C21.5148 32.264 21.2428 32.148 21.0108 32.004C20.7868 31.852 20.6068 31.66 20.4708 31.428C20.3428 31.196 20.2788 30.904 20.2788 30.552C20.2788 30.272 20.3428 30.012 20.4708 29.772C20.5988 29.532 20.7828 29.324 21.0228 29.148C21.2708 28.972 21.5668 28.836 21.9108 28.74C22.2628 28.636 22.6588 28.584 23.0988 28.584C23.5948 28.584 24.0108 28.644 24.3468 28.764C24.6908 28.884 24.9708 29.044 25.1868 29.244C25.4028 29.436 25.5628 29.656 25.6668 29.904C25.7708 30.152 25.8348 30.404 25.8588 30.66H24.0108C23.9628 30.452 23.8588 30.292 23.6988 30.18C23.5388 30.06 23.3388 30 23.0988 30C22.7308 30 22.4748 30.056 22.3308 30.168C22.1948 30.28 22.1268 30.412 22.1268 30.564C22.1268 30.732 22.2388 30.864 22.4628 30.96C22.6868 31.048 23.0428 31.124 23.5308 31.188C23.8748 31.236 24.2028 31.304 24.5148 31.392C24.8268 31.48 25.0988 31.604 25.3308 31.764C25.5708 31.916 25.7588 32.112 25.8948 32.352C26.0308 32.584 26.0988 32.868 26.0988 33.204C26.0988 33.812 25.8428 34.308 25.3308 34.692C24.8268 35.068 24.0828 35.256 23.0988 35.256ZM30.0537 35.256C29.6057 35.256 29.1857 35.192 28.7937 35.064C28.4017 34.928 28.0577 34.724 27.7617 34.452C27.4657 34.18 27.2337 33.84 27.0657 33.432C26.8977 33.016 26.8137 32.532 26.8137 31.98V31.74C26.8137 31.22 26.8977 30.764 27.0657 30.372C27.2337 29.98 27.4657 29.652 27.7617 29.388C28.0577 29.124 28.4017 28.924 28.7937 28.788C29.1857 28.652 29.6057 28.584 30.0537 28.584C30.5017 28.584 30.9217 28.652 31.3137 28.788C31.7057 28.924 32.0497 29.124 32.3457 29.388C32.6417 29.652 32.8737 29.98 33.0417 30.372C33.2097 30.764 33.2937 31.22 33.2937 31.74V31.98C33.2937 32.524 33.2097 33.004 33.0417 33.42C32.8737 33.828 32.6417 34.168 32.3457 34.44C32.0497 34.712 31.7057 34.916 31.3137 35.052C30.9217 35.188 30.5017 35.256 30.0537 35.256ZM30.0537 33.72C30.4857 33.72 30.8177 33.564 31.0497 33.252C31.2817 32.94 31.3977 32.516 31.3977 31.98V31.74C31.3977 31.26 31.2817 30.872 31.0497 30.576C30.8177 30.272 30.4857 30.12 30.0537 30.12C29.6217 30.12 29.2897 30.272 29.0577 30.576C28.8257 30.872 28.7097 31.26 28.7097 31.74V31.98C28.7097 32.532 28.8257 32.96 29.0577 33.264C29.2897 33.568 29.6217 33.72 30.0537 33.72ZM37.009 35.256C36.489 35.256 36.041 35.204 35.665 35.1C35.297 34.988 34.993 34.84 34.753 34.656C34.513 34.464 34.333 34.244 34.213 33.996C34.093 33.74 34.025 33.468 34.009 33.18H35.857C35.905 33.364 36.009 33.52 36.169 33.648C36.329 33.776 36.609 33.84 37.009 33.84C37.417 33.84 37.709 33.784 37.885 33.672C38.069 33.56 38.161 33.412 38.161 33.228C38.161 33.156 38.141 33.092 38.101 33.036C38.061 32.972 37.985 32.916 37.873 32.868C37.769 32.812 37.625 32.76 37.441 32.712C37.257 32.664 37.021 32.616 36.733 32.568C36.381 32.512 36.049 32.44 35.737 32.352C35.425 32.264 35.153 32.148 34.921 32.004C34.697 31.852 34.517 31.66 34.381 31.428C34.253 31.196 34.189 30.904 34.189 30.552C34.189 30.272 34.253 30.012 34.381 29.772C34.509 29.532 34.693 29.324 34.933 29.148C35.181 28.972 35.477 28.836 35.821 28.74C36.173 28.636 36.569 28.584 37.009 28.584C37.505 28.584 37.921 28.644 38.257 28.764C38.601 28.884 38.881 29.044 39.097 29.244C39.313 29.436 39.473 29.656 39.577 29.904C39.681 30.152 39.745 30.404 39.769 30.66H37.921C37.873 30.452 37.769 30.292 37.609 30.18C37.449 30.06 37.249 30 37.009 30C36.641 30 36.385 30.056 36.241 30.168C36.105 30.28 36.037 30.412 36.037 30.564C36.037 30.732 36.149 30.864 36.373 30.96C36.597 31.048 36.953 31.124 37.441 31.188C37.785 31.236 38.113 31.304 38.425 31.392C38.737 31.48 39.009 31.604 39.241 31.764C39.481 31.916 39.669 32.112 39.805 32.352C39.941 32.584 40.009 32.868 40.009 33.204C40.009 33.812 39.753 34.308 39.241 34.692C38.737 35.068 37.993 35.256 37.009 35.256Z" fill="#F2858C" fill-opacity="0.65"/>
</g>
<path d="M23.0993 35.256C22.5793 35.256 22.1313 35.204 21.7553 35.1C21.3873 34.988 21.0833 34.84 20.8433 34.656C20.6033 34.464 20.4233 34.244 20.3033 33.996C20.1833 33.74 20.1153 33.468 20.0993 33.18H21.9473C21.9953 33.364 22.0993 33.52 22.2593 33.648C22.4193 33.776 22.6993 33.84 23.0993 33.84C23.5073 33.84 23.7993 33.784 23.9753 33.672C24.1593 33.56 24.2513 33.412 24.2513 33.228C24.2513 33.156 24.2313 33.092 24.1913 33.036C24.1513 32.972 24.0753 32.916 23.9633 32.868C23.8593 32.812 23.7153 32.76 23.5313 32.712C23.3473 32.664 23.1113 32.616 22.8233 32.568C22.4713 32.512 22.1393 32.44 21.8273 32.352C21.5153 32.264 21.2433 32.148 21.0113 32.004C20.7873 31.852 20.6073 31.66 20.4713 31.428C20.3433 31.196 20.2793 30.904 20.2793 30.552C20.2793 30.272 20.3433 30.012 20.4713 29.772C20.5993 29.532 20.7833 29.324 21.0233 29.148C21.2713 28.972 21.5673 28.836 21.9113 28.74C22.2633 28.636 22.6593 28.584 23.0993 28.584C23.5953 28.584 24.0113 28.644 24.3473 28.764C24.6913 28.884 24.9713 29.044 25.1873 29.244C25.4033 29.436 25.5633 29.656 25.6673 29.904C25.7713 30.152 25.8353 30.404 25.8593 30.66H24.0113C23.9633 30.452 23.8593 30.292 23.6993 30.18C23.5393 30.06 23.3393 30 23.0993 30C22.7313 30 22.4753 30.056 22.3313 30.168C22.1953 30.28 22.1273 30.412 22.1273 30.564C22.1273 30.732 22.2393 30.864 22.4633 30.96C22.6873 31.048 23.0433 31.124 23.5313 31.188C23.8753 31.236 24.2033 31.304 24.5153 31.392C24.8273 31.48 25.0993 31.604 25.3313 31.764C25.5713 31.916 25.7593 32.112 25.8953 32.352C26.0313 32.584 26.0993 32.868 26.0993 33.204C26.0993 33.812 25.8433 34.308 25.3313 34.692C24.8273 35.068 24.0833 35.256 23.0993 35.256ZM30.0542 35.256C29.6062 35.256 29.1862 35.192 28.7942 35.064C28.4022 34.928 28.0582 34.724 27.7622 34.452C27.4662 34.18 27.2342 33.84 27.0662 33.432C26.8982 33.016 26.8142 32.532 26.8142 31.98V31.74C26.8142 31.22 26.8982 30.764 27.0662 30.372C27.2342 29.98 27.4662 29.652 27.7622 29.388C28.0582 29.124 28.4022 28.924 28.7942 28.788C29.1862 28.652 29.6062 28.584 30.0542 28.584C30.5022 28.584 30.9222 28.652 31.3142 28.788C31.7062 28.924 32.0502 29.124 32.3462 29.388C32.6422 29.652 32.8742 29.98 33.0422 30.372C33.2102 30.764 33.2942 31.22 33.2942 31.74V31.98C33.2942 32.524 33.2102 33.004 33.0422 33.42C32.8742 33.828 32.6422 34.168 32.3462 34.44C32.0502 34.712 31.7062 34.916 31.3142 35.052C30.9222 35.188 30.5022 35.256 30.0542 35.256ZM30.0542 33.72C30.4862 33.72 30.8182 33.564 31.0502 33.252C31.2822 32.94 31.3982 32.516 31.3982 31.98V31.74C31.3982 31.26 31.2822 30.872 31.0502 30.576C30.8182 30.272 30.4862 30.12 30.0542 30.12C29.6222 30.12 29.2902 30.272 29.0582 30.576C28.8262 30.872 28.7102 31.26 28.7102 31.74V31.98C28.7102 32.532 28.8262 32.96 29.0582 33.264C29.2902 33.568 29.6222 33.72 30.0542 33.72ZM37.0095 35.256C36.4895 35.256 36.0415 35.204 35.6655 35.1C35.2975 34.988 34.9935 34.84 34.7535 34.656C34.5135 34.464 34.3335 34.244 34.2135 33.996C34.0935 33.74 34.0255 33.468 34.0095 33.18H35.8575C35.9055 33.364 36.0095 33.52 36.1695 33.648C36.3295 33.776 36.6095 33.84 37.0095 33.84C37.4175 33.84 37.7095 33.784 37.8855 33.672C38.0695 33.56 38.1615 33.412 38.1615 33.228C38.1615 33.156 38.1415 33.092 38.1015 33.036C38.0615 32.972 37.9855 32.916 37.8735 32.868C37.7695 32.812 37.6255 32.76 37.4415 32.712C37.2575 32.664 37.0215 32.616 36.7335 32.568C36.3815 32.512 36.0495 32.44 35.7375 32.352C35.4255 32.264 35.1535 32.148 34.9215 32.004C34.6975 31.852 34.5175 31.66 34.3815 31.428C34.2535 31.196 34.1895 30.904 34.1895 30.552C34.1895 30.272 34.2535 30.012 34.3815 29.772C34.5095 29.532 34.6935 29.324 34.9335 29.148C35.1815 28.972 35.4775 28.836 35.8215 28.74C36.1735 28.636 36.5695 28.584 37.0095 28.584C37.5055 28.584 37.9215 28.644 38.2575 28.764C38.6015 28.884 38.8815 29.044 39.0975 29.244C39.3135 29.436 39.4735 29.656 39.5775 29.904C39.6815 30.152 39.7455 30.404 39.7695 30.66H37.9215C37.8735 30.452 37.7695 30.292 37.6095 30.18C37.4495 30.06 37.2495 30 37.0095 30C36.6415 30 36.3855 30.056 36.2415 30.168C36.1055 30.28 36.0375 30.412 36.0375 30.564C36.0375 30.732 36.1495 30.864 36.3735 30.96C36.5975 31.048 36.9535 31.124 37.4415 31.188C37.7855 31.236 38.1135 31.304 38.4255 31.392C38.7375 31.48 39.0095 31.604 39.2415 31.764C39.4815 31.916 39.6695 32.112 39.8055 32.352C39.9415 32.584 40.0095 32.868 40.0095 33.204C40.0095 33.812 39.7535 34.308 39.2415 34.692C38.7375 35.068 37.9935 35.256 37.0095 35.256Z" fill="#F88A8A"/>
<g filter="url(#filter1_f)">
<path d="M57.1657 30.985C57.1657 45.9595 45.0265 58.0987 30.052 58.0987C15.0775 58.0987 2.93832 45.9595 2.93832 30.985C2.93832 16.0105 15.0775 3.87134 30.052 3.87134C45.0265 3.87134 57.1657 16.0105 57.1657 30.985Z" stroke="#FF6376" stroke-width="1.5"/>
</g>
<defs>
<filter id="filter0_f" x="17.0988" y="25.584" width="25.9102" height="12.672" filterUnits="userSpaceOnUse" color-interpolation-filters="sRGB">
<feFlood flood-opacity="0" result="BackgroundImageFix"/>
<feBlend mode="normal" in="SourceGraphic" in2="BackgroundImageFix" result="shape"/>
<feGaussianBlur stdDeviation="1.5" result="effect1_foregroundBlur"/>
</filter>
<filter id="filter1_f" x="1.18832" y="2.12134" width="57.7274" height="57.7274" filterUnits="userSpaceOnUse" color-interpolation-filters="sRGB">
<feFlood flood-opacity="0" result="BackgroundImageFix"/>
<feBlend mode="normal" in="SourceGraphic" in2="BackgroundImageFix" result="shape"/>
<feGaussianBlur stdDeviation="0.5" result="effect1_foregroundBlur"/>
</filter>
<linearGradient id="paint0_linear" x1="30.0518" y1="0.985229" x2="30.0518" y2="60.9852" gradientUnits="userSpaceOnUse">
<stop stop-color="#181B26"/>
<stop offset="1" stop-color="#3B3F4F"/>
</linearGradient>
<linearGradient id="paint1_linear" x1="14.0825" y1="7.76056" x2="47.6261" y2="54.2462" gradientUnits="userSpaceOnUse">
<stop stop-color="#2A2F32"/>
<stop offset="1" stop-color="#4A616D"/>
</linearGradient>
<linearGradient id="paint2_linear" x1="12.4069" y1="9.59542" x2="47.9713" y2="55.0387" gradientUnits="userSpaceOnUse">
<stop stop-color="#3D4A58"/>
<stop offset="1" stop-color="#141E2B"/>
</linearGradient>
</defs>
</svg>
