<svg width="630" height="998" viewBox="0 0 630 998" fill="none" xmlns="http://www.w3.org/2000/svg">
<path d="M1.06653 992.942L2.41351 76.5095C2.41675 74.2982 4.2135 72.5091 6.42468 72.5154L232.434 73.1498C232.808 73.1509 233.175 73.0471 233.493 72.8504L347.178 2.47346C347.81 2.08193 348.539 1.87451 349.283 1.87451L624.691 1.87451C626.9 1.87451 628.691 3.66536 628.691 5.8745L628.691 989.925C628.691 992.127 626.912 993.914 624.711 993.925L5.086 996.948C2.867 996.959 1.06323 995.161 1.06653 992.942Z" stroke="url(#paint0_linear)" stroke-width="2"/>
<g filter="url(#filter0_b)">
<path d="M2.65787 79.2238C2.65569 77.5654 3.99947 76.2198 5.65786 76.2198H233.14C233.707 76.2198 234.264 76.0586 234.744 75.7549L346.557 5.00362C347.037 4.69994 347.593 4.53873 348.161 4.53873H621.887C623.543 4.53873 624.885 5.87921 624.887 7.53435L626.317 988.237C626.32 989.896 624.976 991.241 623.317 991.241H6.84867C5.19335 991.241 3.85082 989.901 3.84865 988.245L2.65787 79.2238Z" fill="#28282B"/>
</g>
<path d="M625.535 6.12763L626.871 990.177C626.872 991.282 625.976 992.179 624.871 992.179H7.06201C5.95744 992.179 5.06201 991.284 5.06201 990.179V77.6036C5.06201 76.4991 5.95744 75.6036 7.06201 75.6036H232.523C233.27 75.6036 234.003 75.3943 234.637 74.9994L347.988 4.43248C348.305 4.23501 348.671 4.13034 349.045 4.13034H623.535C624.639 4.13034 625.534 5.02412 625.535 6.12763Z" stroke="url(#paint1_linear)" stroke-width="2"/>
<path d="M628.054 989.431V6.24084C628.054 4.16977 626.375 2.49084 624.304 2.49084H349.571C348.875 2.49084 348.193 2.68452 347.601 3.0502L233.563 73.4733C233.207 73.6928 232.798 73.809 232.38 73.809H7.06454C4.99224 73.809 3.31279 75.4898 3.31454 77.5621L4.08209 989.434C4.08383 991.504 5.7623 993.181 7.83212 993.181H624.304C626.375 993.181 628.054 991.502 628.054 989.431Z" stroke="#050C25" stroke-width="1.5"/>
<defs>
<filter id="filter0_b" x="-7.34216" y="-5.46127" width="643.659" height="1006.7" filterUnits="userSpaceOnUse" color-interpolation-filters="sRGB">
<feFlood flood-opacity="0" result="BackgroundImageFix"/>
<feGaussianBlur in="BackgroundImage" stdDeviation="5"/>
<feComposite in2="SourceAlpha" operator="in" result="effect1_backgroundBlur"/>
<feBlend mode="normal" in="SourceGraphic" in2="effect1_backgroundBlur" result="shape"/>
</filter>
<linearGradient id="paint0_linear" x1="314.39" y1="74.1523" x2="314.39" y2="960.854" gradientUnits="userSpaceOnUse">
<stop stop-color="#0D1820" stop-opacity="0.39"/>
<stop offset="1" stop-opacity="0.05"/>
</linearGradient>
<linearGradient id="paint1_linear" x1="315.297" y1="409.542" x2="315.297" y2="970.556" gradientUnits="userSpaceOnUse">
<stop stop-color="#7A8491" stop-opacity="0.58"/>
<stop offset="1" stop-color="#161A1F" stop-opacity="0.46"/>
</linearGradient>
</defs>
</svg>
