<svg width="165" height="104" viewBox="0 0 165 104" fill="none" xmlns="http://www.w3.org/2000/svg">
<g filter="url(#filter0_i)">
<path fill-rule="evenodd" clip-rule="evenodd" d="M38.8307 73.5767C38.8398 73.5767 38.8818 73.5794 38.9315 73.584C39.061 73.5961 39.1727 73.6802 39.2618 73.775L45.6562 80.587C45.7801 80.7189 45.849 80.893 45.849 81.074V97.2826C45.849 97.4722 45.7733 97.654 45.6387 97.7875L39.8963 103.482C39.7774 103.6 39.6209 103.672 39.4541 103.686L39.0686 103.718H31.3584C31.1818 103.718 31.0114 103.652 30.8806 103.533L24.5494 97.7905C24.4008 97.6557 24.316 97.4645 24.316 97.2638V81.074C24.316 80.893 24.385 80.7189 24.5089 80.587L30.8507 73.8238C30.8679 73.8066 30.8835 73.7907 30.898 73.776C31.0458 73.6258 31.0761 73.5951 31.3666 73.588L38.8307 73.5767ZM38.3569 80.3292C38.7499 80.3292 39.0684 80.6479 39.0681 81.0409L39.0565 96.2547C39.0562 96.6473 38.7379 96.9653 38.3454 96.9653H31.7956C31.4026 96.9653 31.0842 96.6466 31.0845 96.2537L31.096 81.0398C31.0963 80.6472 31.4146 80.3292 31.8071 80.3292H38.3569Z" fill="#758086"/>
<path d="M48.0191 97.2616C48.0191 97.4635 48.105 97.6559 48.2552 97.7908L54.5969 103.483C54.7274 103.6 54.8966 103.665 55.0719 103.665H62.6051C62.7846 103.665 62.9575 103.597 63.089 103.475L68.7724 98.1975C69.2461 97.7577 68.9349 96.9653 68.2885 96.9653H55.5103C55.1175 96.9653 54.7991 96.6469 54.7992 96.2541L54.7996 81.0683C54.7996 80.6755 55.118 80.3572 55.5107 80.3572H68.3048C68.949 80.3572 69.2613 79.569 68.7918 79.1278L63.0896 73.7696C62.9578 73.6456 62.7836 73.5767 62.6027 73.5767H55.1072C54.9109 73.5767 54.7234 73.6578 54.589 73.8008L48.212 80.587C48.0881 80.7189 48.0191 80.893 48.0191 81.074V97.2616Z" fill="#758086"/>
<path fill-rule="evenodd" clip-rule="evenodd" d="M118.983 80.587C118.859 80.7189 118.79 80.893 118.79 81.074V97.2972C118.79 97.4781 118.859 97.6523 118.983 97.7842L124.341 103.486C124.782 103.956 125.57 103.644 125.57 102.999V95.5709C125.57 95.1781 125.888 94.8597 126.281 94.8597H133.394C133.575 94.8597 133.749 94.7907 133.881 94.6668L140.881 88.0892L140.883 88.0851L140.882 88.0822C140.882 88.0822 140.879 88.0792 140.877 88.0792C140.874 88.0792 140.871 88.0766 140.871 88.0735V74.2878C140.871 73.895 140.553 73.5767 140.16 73.5767H125.878C125.681 73.5767 125.494 73.6578 125.359 73.8008L118.983 80.587ZM133.379 80.3572C133.772 80.3572 134.09 80.6755 134.09 81.0683V87.3681C134.09 87.7608 133.772 88.0792 133.379 88.0792H126.281C125.888 88.0792 125.57 87.7609 125.57 87.3681V81.0683C125.57 80.6755 125.888 80.3572 126.281 80.3572H133.379Z" fill="#758086"/>
<path fill-rule="evenodd" clip-rule="evenodd" d="M115.389 103.489C115.831 103.959 116.619 103.647 116.619 103.002L116.616 74.0183L116.616 73.9899C116.617 73.7632 116.435 73.5782 116.208 73.5767L102.3 73.5795C102.102 73.5796 101.914 73.6617 101.779 73.8061L95.6313 80.4105C95.5088 80.5421 95.4407 80.7152 95.4407 80.895V97.2972C95.4407 97.4781 95.5097 97.6523 95.6336 97.7842L100.978 103.472C101.421 103.943 102.213 103.627 102.208 102.98L102.155 95.8794C102.152 95.4846 102.471 95.163 102.866 95.163L109.127 95.1631C109.52 95.1631 109.838 95.4814 109.838 95.8742V97.3001C109.838 97.4811 109.907 97.6552 110.031 97.7871L115.389 103.489ZM110.031 81.1216C110.031 80.7289 110.041 80.4105 109.649 80.4105H102.55C102.158 80.4105 102.155 80.7289 102.155 81.1216V87.4214C102.155 87.8142 102.158 88.1326 102.55 88.1326H109.649C110.041 88.1326 110.031 87.8142 110.031 87.4214V81.1216Z" fill="#758086"/>
<path d="M78.3654 97.4853C78.5019 97.348 78.5785 97.1622 78.5785 96.9687V89.1746C78.5785 88.7699 78.9066 88.4417 79.3114 88.4417H85.8227C86.2275 88.4417 86.5556 88.7699 86.5556 89.1746V96.9686C86.5556 97.1622 86.6322 97.348 86.7686 97.4853L92.6932 103.447C93.1543 103.911 93.946 103.584 93.946 102.93V74.3111C93.946 73.657 93.1542 73.3306 92.6932 73.7945L86.5556 79.9708L83.0748 83.3164C82.7911 83.5891 82.3427 83.5891 82.059 83.3164L78.5785 79.9704L72.4409 73.7944C71.9798 73.3305 71.1881 73.657 71.1881 74.311V102.93C71.1881 103.584 71.9798 103.911 72.4409 103.447L78.3654 97.4853Z" fill="#758086"/>
<path fill-rule="evenodd" clip-rule="evenodd" d="M22.1331 88.0735C22.1331 88.0766 22.1357 88.0792 22.1389 88.0792C22.1441 88.0792 22.1467 88.0856 22.1429 88.0892L15.1431 94.6668C15.0112 94.7907 14.8371 94.8597 14.6561 94.8597H7.54338C7.15064 94.8597 6.83225 95.1781 6.83225 95.5709V102.999C6.83225 103.644 6.04409 103.956 5.6029 103.486L0.24466 97.7842C0.120743 97.6523 0.0517578 97.4781 0.0517578 97.2972V81.074C0.0517578 80.893 0.120743 80.7189 0.24466 80.587L6.6286 73.7666C6.63 73.7651 6.63062 73.7643 6.63109 73.7637C6.63182 73.7628 6.63218 73.7624 6.63457 73.7603C6.72193 73.6829 6.93628 73.5833 7.05292 73.5806C7.15334 73.5783 7.24792 73.5768 7.2518 73.5768L21.422 73.5767C21.8147 73.5767 22.1331 73.895 22.1331 74.2878V88.0735ZM7.54339 80.3572C7.15064 80.3572 6.83225 80.6755 6.83225 81.0683V87.3681C6.83225 87.7609 7.15064 88.0792 7.54338 88.0792H14.6415C15.0342 88.0792 15.3526 87.7609 15.3526 87.3681V81.0683C15.3526 80.6755 15.0342 80.3572 14.6415 80.3572H7.54339Z" fill="#758086"/>
<path d="M143.053 97.2616C143.053 97.4635 143.139 97.6559 143.289 97.7908L149.631 103.483C149.762 103.6 149.931 103.665 150.106 103.665H157.639C157.819 103.665 157.992 103.597 158.123 103.475L163.807 98.1975C164.28 97.7577 163.969 96.9653 163.323 96.9653H150.544C150.152 96.9653 149.833 96.6469 149.833 96.2541L149.834 81.0683C149.834 80.6755 150.152 80.3572 150.545 80.3572H163.339C163.983 80.3572 164.295 79.569 163.826 79.1278L158.124 73.7696C157.992 73.6456 157.818 73.5767 157.637 73.5767H150.141C149.945 73.5767 149.757 73.6578 149.623 73.8008L143.246 80.587C143.122 80.7189 143.053 80.893 143.053 81.074V97.2616Z" fill="#758086"/>
</g>
<path d="M1.03176 4.7H3.55176V8.578H4.25176L7.24776 4.7H9.99176L6.21176 9.278L10.1318 14.5H7.19176L4.25176 10.342H3.55176V14.5H1.03176V4.7ZM15.6 14.682C14.956 14.682 14.3446 14.5887 13.766 14.402C13.1873 14.2153 12.6786 13.9213 12.24 13.52C11.8106 13.1093 11.47 12.5913 11.218 11.966C10.966 11.3313 10.84 10.566 10.84 9.67V9.39C10.84 8.53133 10.966 7.794 11.218 7.178C11.47 6.562 11.8106 6.058 12.24 5.666C12.6786 5.274 13.1873 4.98467 13.766 4.798C14.3446 4.61133 14.956 4.518 15.6 4.518C16.244 4.518 16.8553 4.61133 17.434 4.798C18.0126 4.98467 18.5166 5.274 18.946 5.666C19.3846 6.058 19.73 6.562 19.982 7.178C20.234 7.794 20.36 8.53133 20.36 9.39V9.67C20.36 10.566 20.234 11.3313 19.982 11.966C19.73 12.5913 19.3846 13.1093 18.946 13.52C18.5166 13.9213 18.0126 14.2153 17.434 14.402C16.8553 14.5887 16.244 14.682 15.6 14.682ZM15.6 12.582C15.88 12.582 16.1506 12.54 16.412 12.456C16.6733 12.3627 16.902 12.2087 17.098 11.994C17.294 11.77 17.4526 11.4713 17.574 11.098C17.6953 10.7247 17.756 10.2487 17.756 9.67V9.39C17.756 8.84867 17.6953 8.40067 17.574 8.046C17.4526 7.682 17.294 7.39733 17.098 7.192C16.902 6.97733 16.6733 6.828 16.412 6.744C16.1506 6.66 15.88 6.618 15.6 6.618C15.32 6.618 15.0493 6.66 14.788 6.744C14.5266 6.828 14.298 6.97733 14.102 7.192C13.906 7.39733 13.7473 7.682 13.626 8.046C13.5046 8.40067 13.444 8.84867 13.444 9.39V9.67C13.444 10.2487 13.5046 10.7247 13.626 11.098C13.7473 11.4713 13.906 11.77 14.102 11.994C14.298 12.2087 14.5266 12.3627 14.788 12.456C15.0493 12.54 15.32 12.582 15.6 12.582ZM26.1634 14.682C25.4914 14.682 24.8754 14.5933 24.3154 14.416C23.7554 14.2293 23.2747 13.9353 22.8734 13.534C22.4814 13.1327 22.1734 12.6147 21.9494 11.98C21.7254 11.3453 21.6134 10.5707 21.6134 9.656V9.39C21.6134 8.53133 21.7301 7.794 21.9634 7.178C22.1967 6.562 22.5187 6.058 22.9294 5.666C23.3401 5.274 23.8207 4.98467 24.3714 4.798C24.9314 4.61133 25.5287 4.518 26.1634 4.518C26.7327 4.518 27.2647 4.58333 27.7594 4.714C28.2634 4.84467 28.7021 5.05 29.0754 5.33C29.4581 5.61 29.7661 5.974 29.9994 6.422C30.2421 6.87 30.3867 7.416 30.4334 8.06H27.8294C27.7827 7.79867 27.7081 7.57933 27.6054 7.402C27.5027 7.21533 27.3767 7.066 27.2274 6.954C27.0781 6.83267 26.9101 6.74867 26.7234 6.702C26.5461 6.646 26.3594 6.618 26.1634 6.618C25.8834 6.618 25.6221 6.66933 25.3794 6.772C25.1461 6.86533 24.9407 7.024 24.7634 7.248C24.5954 7.46267 24.4601 7.74733 24.3574 8.102C24.2641 8.45667 24.2174 8.886 24.2174 9.39V9.684C24.2174 10.2253 24.2687 10.6827 24.3714 11.056C24.4834 11.42 24.6281 11.7187 24.8054 11.952C24.9827 12.176 25.1881 12.3393 25.4214 12.442C25.6547 12.5353 25.9021 12.582 26.1634 12.582C26.6394 12.582 27.0174 12.47 27.2974 12.246C27.5867 12.0127 27.7641 11.644 27.8294 11.14H30.4334C30.3961 11.7933 30.2607 12.344 30.0274 12.792C29.8034 13.24 29.5001 13.604 29.1174 13.884C28.7441 14.164 28.3054 14.3693 27.8014 14.5C27.2974 14.6213 26.7514 14.682 26.1634 14.682ZM31.9029 4.7H34.4789L37.1949 9.67L39.8829 4.7H42.4029V14.5H39.8829V8.886L37.8529 12.61H36.4529L34.4229 8.886V14.5H31.9029V4.7ZM44.3579 4.7H46.8779V10.58L50.7279 4.7H53.0379V14.5H50.5179V8.62L46.6679 14.5H44.3579V4.7ZM60.1046 10.594C59.862 10.7527 59.54 10.8973 59.1386 11.028C58.7373 11.1493 58.266 11.21 57.7246 11.21C56.7073 11.21 55.9373 10.958 55.4146 10.454C54.9013 9.94067 54.6446 9.11933 54.6446 7.99V4.7H57.1646V7.57C57.1646 8.13 57.2813 8.52667 57.5146 8.76C57.748 8.99333 58.0746 9.11 58.4946 9.11C58.8866 9.11 59.2086 9.068 59.4606 8.984C59.722 8.89067 59.9366 8.79267 60.1046 8.69V4.7H62.6246V14.5H60.1046V10.594ZM64.5786 4.7H71.7186V6.632H67.0986V8.55H71.2986V10.37H67.0986V12.568H71.7186V14.5H64.5786V4.7ZM77.4603 14.682C76.7883 14.682 76.1723 14.5933 75.6123 14.416C75.0523 14.2293 74.5716 13.9353 74.1703 13.534C73.7783 13.1327 73.4703 12.6147 73.2463 11.98C73.0223 11.3453 72.9103 10.5707 72.9103 9.656V9.39C72.9103 8.53133 73.0269 7.794 73.2603 7.178C73.4936 6.562 73.8156 6.058 74.2263 5.666C74.6369 5.274 75.1176 4.98467 75.6683 4.798C76.2283 4.61133 76.8256 4.518 77.4603 4.518C78.0296 4.518 78.5616 4.58333 79.0563 4.714C79.5603 4.84467 79.9989 5.05 80.3723 5.33C80.7549 5.61 81.0629 5.974 81.2963 6.422C81.5389 6.87 81.6836 7.416 81.7303 8.06H79.1263C79.0796 7.79867 79.0049 7.57933 78.9023 7.402C78.7996 7.21533 78.6736 7.066 78.5243 6.954C78.3749 6.83267 78.2069 6.74867 78.0203 6.702C77.8429 6.646 77.6563 6.618 77.4603 6.618C77.1803 6.618 76.9189 6.66933 76.6763 6.772C76.4429 6.86533 76.2376 7.024 76.0603 7.248C75.8923 7.46267 75.7569 7.74733 75.6543 8.102C75.5609 8.45667 75.5143 8.886 75.5143 9.39V9.684C75.5143 10.2253 75.5656 10.6827 75.6683 11.056C75.7803 11.42 75.9249 11.7187 76.1023 11.952C76.2796 12.176 76.4849 12.3393 76.7183 12.442C76.9516 12.5353 77.1989 12.582 77.4603 12.582C77.9363 12.582 78.3143 12.47 78.5943 12.246C78.8836 12.0127 79.0609 11.644 79.1263 11.14H81.7303C81.6929 11.7933 81.5576 12.344 81.3243 12.792C81.1003 13.24 80.7969 13.604 80.4143 13.884C80.0409 14.164 79.6023 14.3693 79.0983 14.5C78.5943 14.6213 78.0483 14.682 77.4603 14.682ZM83.1997 4.7H85.7197V8.578H86.4197L89.4157 4.7H92.1597L88.3797 9.278L92.2997 14.5H89.3597L86.4197 10.342H85.7197V14.5H83.1997V4.7ZM93.4946 4.7H96.0146V10.58L99.8646 4.7H102.175V14.5H99.6546V8.62L95.8046 14.5H93.4946V4.7ZM104.131 4.7H106.651V10.58L110.501 4.7H112.811V14.5H110.291V8.62L106.441 14.5H104.131V4.7ZM108.471 4.14C107.482 4.14 106.768 3.93933 106.329 3.538C105.891 3.13667 105.671 2.544 105.671 1.76H107.715C107.715 2.14267 107.771 2.404 107.883 2.544C108.005 2.67467 108.201 2.74 108.471 2.74C108.742 2.74 108.933 2.67467 109.045 2.544C109.167 2.404 109.227 2.14267 109.227 1.76H111.271C111.271 2.544 111.052 3.13667 110.613 3.538C110.175 3.93933 109.461 4.14 108.471 4.14ZM1.03176 21.7H3.60776L6.32376 26.67L9.01176 21.7H11.5318V31.5H9.01176V25.886L6.98176 29.61H5.58176L3.55176 25.886V31.5H1.03176V21.7ZM13.4868 21.7H20.6268V23.632H16.0068V25.55H20.2068V27.37H16.0068V29.568H20.6268V31.5H13.4868V21.7ZM24.7536 26.474L21.7436 21.7H24.4036L26.7136 25.578H27.2876V21.7H29.8076V25.578H30.3676L32.7756 21.7H35.3236L32.3136 26.278L35.4636 31.5H32.7196L30.3676 27.342H29.8076V31.5H27.2876V27.342H26.7276L24.2636 31.5H21.6036L24.7536 26.474ZM36.647 21.7H45.187V31.5H42.667V23.772H39.167V31.5H36.647V21.7ZM47.147 31.682C47.0723 31.682 46.965 31.6773 46.825 31.668C46.6943 31.668 46.5917 31.6587 46.517 31.64V29.428C46.5637 29.4373 46.6337 29.442 46.727 29.442C46.951 29.442 47.1423 29.4 47.301 29.316C47.469 29.232 47.5997 29.0313 47.693 28.714C47.7957 28.3967 47.8703 27.93 47.917 27.314C47.9637 26.6887 47.987 25.844 47.987 24.78V21.7H55.407V31.5H52.887V23.758H50.339V25.06C50.339 26.516 50.2643 27.678 50.115 28.546C49.9657 29.414 49.751 30.0813 49.471 30.548C49.2003 31.0147 48.8643 31.3227 48.463 31.472C48.071 31.612 47.6323 31.682 47.147 31.682ZM62.8616 29.624H59.5856L58.9136 31.5H56.5336L60.1036 21.7H62.6236L66.1936 31.5H63.5336L62.8616 29.624ZM60.2996 27.692H62.1476L61.2236 24.78L60.2996 27.692ZM67.313 21.7H69.833V25.424H73.473V21.7H75.993V31.5H73.473V27.496H69.833V31.5H67.313V21.7ZM77.9497 21.7H85.0897V23.632H80.4697V25.55H84.6697V27.37H80.4697V29.568H85.0897V31.5H77.9497V21.7ZM89.2832 23.772H86.2732V21.7H94.8132V23.772H91.8032V31.5H89.2832V23.772ZM96.0786 21.7H98.5986V25.424H102.239V21.7H104.759V31.5H102.239V27.496H98.5986V31.5H96.0786V21.7ZM106.715 21.7H109.235V24.948H110.425C111.788 24.948 112.791 25.242 113.435 25.83C114.089 26.418 114.415 27.216 114.415 28.224C114.415 29.232 114.089 30.03 113.435 30.618C112.791 31.206 111.788 31.5 110.425 31.5H106.715V21.7ZM110.145 29.428C110.733 29.428 111.158 29.316 111.419 29.092C111.681 28.868 111.811 28.5787 111.811 28.224C111.811 27.8693 111.681 27.58 111.419 27.356C111.158 27.132 110.733 27.02 110.145 27.02H109.235V29.428H110.145ZM115.115 21.7H117.635V31.5H115.115V21.7ZM119.594 21.7H122.114V27.58L125.964 21.7H128.274V31.5H125.754V25.62L121.904 31.5H119.594V21.7ZM123.934 21.14C122.945 21.14 122.231 20.9393 121.792 20.538C121.354 20.1367 121.134 19.544 121.134 18.76H123.178C123.178 19.1427 123.234 19.404 123.346 19.544C123.468 19.6747 123.664 19.74 123.934 19.74C124.205 19.74 124.396 19.6747 124.508 19.544C124.63 19.404 124.69 19.1427 124.69 18.76H126.734C126.734 19.544 126.515 20.1367 126.076 20.538C125.638 20.9393 124.924 21.14 123.934 21.14ZM1.03176 38.7H3.55176V42.578H4.25176L7.24776 38.7H9.99176L6.21176 43.278L10.1318 48.5H7.19176L4.25176 44.342H3.55176V48.5H1.03176V38.7ZM15.6 48.682C14.956 48.682 14.3446 48.5887 13.766 48.402C13.1873 48.2153 12.6786 47.9213 12.24 47.52C11.8106 47.1093 11.47 46.5913 11.218 45.966C10.966 45.3313 10.84 44.566 10.84 43.67V43.39C10.84 42.5313 10.966 41.794 11.218 41.178C11.47 40.562 11.8106 40.058 12.24 39.666C12.6786 39.274 13.1873 38.9847 13.766 38.798C14.3446 38.6113 14.956 38.518 15.6 38.518C16.244 38.518 16.8553 38.6113 17.434 38.798C18.0126 38.9847 18.5166 39.274 18.946 39.666C19.3846 40.058 19.73 40.562 19.982 41.178C20.234 41.794 20.36 42.5313 20.36 43.39V43.67C20.36 44.566 20.234 45.3313 19.982 45.966C19.73 46.5913 19.3846 47.1093 18.946 47.52C18.5166 47.9213 18.0126 48.2153 17.434 48.402C16.8553 48.5887 16.244 48.682 15.6 48.682ZM15.6 46.582C15.88 46.582 16.1506 46.54 16.412 46.456C16.6733 46.3627 16.902 46.2087 17.098 45.994C17.294 45.77 17.4526 45.4713 17.574 45.098C17.6953 44.7247 17.756 44.2487 17.756 43.67V43.39C17.756 42.8487 17.6953 42.4007 17.574 42.046C17.4526 41.682 17.294 41.3973 17.098 41.192C16.902 40.9773 16.6733 40.828 16.412 40.744C16.1506 40.66 15.88 40.618 15.6 40.618C15.32 40.618 15.0493 40.66 14.788 40.744C14.5266 40.828 14.298 40.9773 14.102 41.192C13.906 41.3973 13.7473 41.682 13.626 42.046C13.5046 42.4007 13.444 42.8487 13.444 43.39V43.67C13.444 44.2487 13.5046 44.7247 13.626 45.098C13.7473 45.4713 13.906 45.77 14.102 45.994C14.298 46.2087 14.5266 46.3627 14.788 46.456C15.0493 46.54 15.32 46.582 15.6 46.582ZM21.9634 38.7H25.9534C27.3161 38.7 28.3194 38.9987 28.9634 39.596C29.6167 40.184 29.9434 41.0007 29.9434 42.046C29.9434 43.0913 29.6167 43.9127 28.9634 44.51C28.3194 45.098 27.3161 45.392 25.9534 45.392H24.4834V48.5H21.9634V38.7ZM25.6734 43.32C26.3174 43.32 26.7701 43.2127 27.0314 42.998C27.2927 42.7833 27.4234 42.466 27.4234 42.046C27.4234 41.626 27.2927 41.3087 27.0314 41.094C26.7701 40.8793 26.3174 40.772 25.6734 40.772H24.4834V43.32H25.6734ZM35.9143 46.624H32.6383L31.9663 48.5H29.5863L33.1563 38.7H35.6763L39.2463 48.5H36.5863L35.9143 46.624ZM33.3523 44.692H35.2003L34.2763 41.78L33.3523 44.692ZM40.3657 38.7H47.5757V40.772H42.8857V42.228H44.4957C45.1771 42.228 45.7651 42.3027 46.2597 42.452C46.7637 42.592 47.1791 42.7973 47.5057 43.068C47.8417 43.3293 48.0891 43.6513 48.2477 44.034C48.4064 44.4073 48.4857 44.8273 48.4857 45.294C48.4857 46.302 48.1591 47.0907 47.5057 47.66C46.8617 48.22 45.8584 48.5 44.4957 48.5H40.3657V38.7ZM44.2157 46.428C44.8224 46.428 45.2517 46.33 45.5037 46.134C45.7557 45.9287 45.8817 45.6487 45.8817 45.294C45.8817 44.9393 45.7557 44.664 45.5037 44.468C45.2517 44.2627 44.8224 44.16 44.2157 44.16H42.8857V46.428H44.2157ZM49.8814 48.682C49.8067 48.682 49.6994 48.6773 49.5594 48.668C49.4287 48.668 49.326 48.6587 49.2514 48.64V46.428C49.298 46.4373 49.368 46.442 49.4614 46.442C49.6854 46.442 49.8767 46.4 50.0354 46.316C50.2034 46.232 50.334 46.0313 50.4274 45.714C50.53 45.3967 50.6047 44.93 50.6514 44.314C50.698 43.6887 50.7214 42.844 50.7214 41.78V38.7H58.1414V48.5H55.6214V40.758H53.0734V42.06C53.0734 43.516 52.9987 44.678 52.8494 45.546C52.7 46.414 52.4854 47.0813 52.2054 47.548C51.9347 48.0147 51.5987 48.3227 51.1974 48.472C50.8054 48.612 50.3667 48.682 49.8814 48.682ZM60.1079 38.7H62.6279V41.948H64.0979C65.4606 41.948 66.4639 42.242 67.1079 42.83C67.7613 43.418 68.0879 44.216 68.0879 45.224C68.0879 46.232 67.7613 47.03 67.1079 47.618C66.4639 48.206 65.4606 48.5 64.0979 48.5H60.1079V38.7ZM63.8179 46.428C64.4059 46.428 64.8306 46.316 65.0919 46.092C65.3533 45.868 65.4839 45.5787 65.4839 45.224C65.4839 44.8693 65.3533 44.58 65.0919 44.356C64.8306 44.132 64.4059 44.02 63.8179 44.02H62.6279V46.428H63.8179Z" fill="#AFBEC0"/>
<defs>
<filter id="filter0_i" x="0.0517578" y="73.5767" width="164" height="33.1412" filterUnits="userSpaceOnUse" color-interpolation-filters="sRGB">
<feFlood flood-opacity="0" result="BackgroundImageFix"/>
<feBlend mode="normal" in="SourceGraphic" in2="BackgroundImageFix" result="shape"/>
<feColorMatrix in="SourceAlpha" type="matrix" values="0 0 0 0 0 0 0 0 0 0 0 0 0 0 0 0 0 0 127 0" result="hardAlpha"/>
<feOffset dy="3"/>
<feGaussianBlur stdDeviation="2"/>
<feComposite in2="hardAlpha" operator="arithmetic" k2="-1" k3="1"/>
<feColorMatrix type="matrix" values="0 0 0 0 0.00486111 0 0 0 0 0.050375 0 0 0 0 0.0833333 0 0 0 0.52 0"/>
<feBlend mode="normal" in2="shape" result="effect1_innerShadow"/>
</filter>
</defs>
</svg>
