<svg width="29" height="26" viewBox="0 0 29 26" fill="none" xmlns="http://www.w3.org/2000/svg">
<path d="M13.6119 10.6766H15.852V17.3679H13.6119V10.6766ZM14.7319 21.0481C14.344 21.0481 14.0143 20.9172 13.7428 20.6554C13.481 20.3838 13.35 20.0541 13.35 19.6662C13.35 19.2783 13.481 18.9535 13.7428 18.6916C14.0143 18.4201 14.344 18.2843 14.7319 18.2843C15.1198 18.2843 15.4447 18.4201 15.7065 18.6916C15.9781 18.9535 16.1138 19.2783 16.1138 19.6662C16.1138 20.0541 15.9781 20.3838 15.7065 20.6554C15.4447 20.9172 15.1198 21.0481 14.7319 21.0481Z" fill="#384249"/>
<path fill-rule="evenodd" clip-rule="evenodd" d="M26.1779 23.0675L14.7677 3.30438L3.35743 23.0675L26.1779 23.0675ZM16.8673 2.0922C15.9341 0.475944 13.6013 0.47594 12.6681 2.09219L1.25787 21.8553C0.324723 23.4716 1.49115 25.4919 3.35743 25.4919H26.1779C28.0442 25.4919 29.2107 23.4716 28.2775 21.8553L16.8673 2.0922Z" fill="#384249"/>
</svg>
